<?xml version="1.0" standalone="no"?>
<!DOCTYPE svg PUBLIC "-//W3C//DTD SVG 20010904//EN"
 "http://www.w3.org/TR/2001/REC-SVG-20010904/DTD/svg10.dtd">
<svg version="1.0" xmlns="http://www.w3.org/2000/svg"
 width="700.000000pt" height="700.000000pt" viewBox="0 0 700.000000 700.000000"
 preserveAspectRatio="xMidYMid meet">
<metadata>
Created by potrace 1.14, written by Peter Selinger 2001-2017
</metadata>
<g transform="translate(0.000000,700.000000) scale(0.100000,-0.100000)"
fill="#000000" stroke="none">
<path d="M1530 6959 c-66 -11 -81 -15 -130 -35 -191 -76 -352 -255 -419 -464
-34 -104 -44 -170 -44 -285 l0 -80 -59 -44 c-132 -97 -246 -283 -283 -462 -4
-19 -8 -1125 -9 -2459 -2 -2249 -1 -2431 15 -2505 36 -173 104 -294 229 -413
95 -90 229 -164 341 -188 13 -2 44 -9 69 -14 53 -11 4512 -9 4549 2 13 4 49
15 79 24 224 64 424 256 503 480 47 135 45 57 44 2619 -1 2526 0 2435 -41
2563 -74 229 -282 425 -524 495 l-55 16 -3 61 c-2 51 -11 107 -26 155 -2 6 -6
23 -11 38 -4 16 -21 56 -37 90 -216 445 -721 547 -1053 212 -48 -48 -86 -98
-109 -144 l-18 -33 -39 59 c-103 159 -258 268 -429 303 -94 19 -167 18 -265
-5 -151 -35 -307 -150 -397 -292 -18 -29 -36 -53 -39 -53 -4 0 -19 19 -34 43
-76 115 -171 201 -282 256 -292 145 -630 39 -821 -259 -23 -35 -37 -49 -40
-40 -3 8 -24 42 -47 75 -146 206 -394 321 -615 284z m186 -391 c57 -27 111
-85 145 -153 29 -60 56 -171 44 -183 -4 -4 -135 -8 -291 -9 l-284 -2 0 29 c0
40 33 142 64 194 31 54 108 123 150 135 49 15 131 9 172 -11z m1172 -4 c59
-29 111 -85 143 -152 22 -48 49 -159 42 -177 -2 -7 -103 -10 -291 -10 -281 0
-287 0 -286 20 8 98 57 206 125 275 74 73 175 90 267 44z m1155 7 c97 -42 174
-158 195 -294 l8 -53 -293 0 -294 0 6 41 c37 236 211 377 378 306z m1142 9 c3
-5 14 -10 24 -10 26 0 107 -74 137 -126 29 -50 53 -119 60 -180 l6 -42 -291 2
c-333 1 -304 -9 -276 101 30 114 122 232 199 254 43 13 133 13 141 1z"/>
</g>
</svg>
