<?xml version="1.0" standalone="no"?>
<!DOCTYPE svg PUBLIC "-//W3C//DTD SVG 20010904//EN"
 "http://www.w3.org/TR/2001/REC-SVG-20010904/DTD/svg10.dtd">
<svg version="1.0" xmlns="http://www.w3.org/2000/svg"
 width="700.000000pt" height="700.000000pt" viewBox="0 0 700.000000 700.000000"
 preserveAspectRatio="xMidYMid meet">
<metadata>
Created by potrace 1.14, written by Peter Selinger 2001-2017
</metadata>
<g transform="translate(0.000000,700.000000) scale(0.100000,-0.100000)"
fill="#000000" stroke="none">
<path d="M2177 6414 c-1 -1 -42 -4 -92 -7 -136 -9 -206 -20 -340 -53 -496
-122 -855 -432 -1033 -889 -37 -93 -76 -233 -92 -325 -6 -36 -13 -76 -16 -90
-2 -14 -7 -68 -11 -120 -9 -119 -10 -2758 -1 -2860 40 -439 188 -783 449
-1041 231 -229 540 -372 917 -425 111 -15 342 -18 1537 -18 1196 -1 1500 3
1547 19 7 2 31 6 53 9 202 26 468 124 645 237 165 107 338 286 432 449 56 97
67 119 103 210 53 132 96 289 111 405 3 22 7 46 9 53 14 42 19 423 18 1567 0
1407 0 1425 -44 1644 -118 600 -505 1016 -1089 1170 -74 19 -204 43 -310 57
-47 6 -2786 14 -2793 8z m-62 -1259 c33 -4 69 -9 80 -11 10 -2 37 -6 59 -10
22 -3 43 -7 47 -9 3 -2 21 -7 40 -10 195 -33 596 -173 829 -290 115 -58 126
-65 144 -84 41 -45 41 -36 40 -1447 0 -1330 -1 -1361 -20 -1394 -51 -87 -116
-94 -269 -31 -99 42 -316 119 -450 161 -86 27 -397 106 -445 113 -19 3 -84 13
-145 21 -182 27 -289 98 -353 234 l-27 57 0 1215 0 1215 31 65 c55 114 156
190 276 208 57 8 70 8 163 -3z m2941 -6 c143 -36 261 -159 294 -306 16 -68 15
-2308 0 -2380 -7 -29 -29 -78 -54 -115 -69 -102 -160 -159 -281 -173 -48 -6
-61 -8 -130 -20 -127 -23 -408 -90 -475 -115 -14 -5 -63 -20 -110 -35 -113
-35 -263 -88 -384 -137 -138 -56 -203 -46 -252 37 -17 28 -18 102 -19 1390 0
831 3 1373 9 1393 15 51 51 80 181 142 207 99 305 138 500 199 341 106 601
150 721 120z"/>
</g>
</svg>
