<svg xmlns="http://www.w3.org/2000/svg" version="1.1" xmlns:xlink="http://www.w3.org/1999/xlink" xmlns:svgjs="http://svgjs.com/svgjs" width="36" height="36"><svg viewBox="0 0 36 36" xmlns="http://www.w3.org/2000/svg"><path d="m27.815 4h1.996v2.391h-1.996z" fill="#66757f"></path><path d="m29 4h-20c-2.209 0-4 1.791-4 4v24c0 2.209 1.791 4 4 4h20c2.209 0 4-1.791 4-4v-24c0-2.209-1.791-4-4-4z" fill="#55acee"></path><path d="m27 4h-20c-2.209 0-4 1.791-4 4v24c0 2.209 1.791 4 4 4h20c2.209 0 4-1.791 4-4v-24c0-2.209-1.791-4-4-4z" fill="#ccd6dd"></path><path d="m28 15c0 .553-.447 1-1 1h-20c-.552 0-1-.447-1-1 0-.552.448-1 1-1h20c.553 0 1 .448 1 1zm0 5c0 .553-.447 1-1 1h-20c-.552 0-1-.447-1-1s.448-1 1-1h20c.553 0 1 .447 1 1zm0 5c0 .553-.447 1-1 1h-20c-.552 0-1-.447-1-1s.448-1 1-1h20c.553 0 1 .447 1 1zm-8 5c0 .553-.447 1-1 1h-12c-.552 0-1-.447-1-1s.448-1 1-1h12c.553 0 1 .447 1 1z" fill="#99aab5"></path><path d="m7.836 8.731c-.702 0-1.271-.666-1.271-1.489 0-.822.569-1.489 1.271-1.489.701 0 1.27.667 1.27 1.489s-.569 1.489-1.27 1.489z" fill="#292f33"></path><path d="m8.543 7.083c-.055-.48-.374-.792-.729-1.017-.485-.307-1-1.008-1-1.877 0-1.104.671-2.095 1.5-2.095s1.5.905 1.5 1.905h1.996c-.021-2-1.575-3.821-3.496-3.821-1.934 0-3.5 1.819-3.5 4.005 0 1.853 1.045 3.371 2.569 3.926.76.276 1.224-.447 1.16-1.026z" fill="#66757f"></path><path d="m13.836 8.731c-.702 0-1.271-.666-1.271-1.489 0-.822.569-1.489 1.271-1.489.701 0 1.27.667 1.27 1.489s-.569 1.489-1.27 1.489z" fill="#292f33"></path><path d="m14.543 7.083c-.055-.48-.374-.792-.729-1.017-.485-.307-1-1.008-1-1.877 0-1.104.671-2.095 1.5-2.095s1.5.905 1.5 1.905h1.996c-.02-2-1.575-3.821-3.496-3.821-1.934 0-3.5 1.819-3.5 4.005 0 1.853 1.045 3.371 2.569 3.926.76.276 1.224-.447 1.16-1.026z" fill="#66757f"></path><path d="m19.836 8.731c-.702 0-1.271-.666-1.271-1.489 0-.822.569-1.489 1.271-1.489.701 0 1.271.667 1.271 1.489-.001.822-.57 1.489-1.271 1.489z" fill="#292f33"></path><path d="m20.543 7.083c-.055-.48-.374-.792-.728-1.017-.485-.307-1-1.008-1-1.877 0-1.104.671-2.095 1.5-2.095s1.5.905 1.5 1.905h1.996c-.02-2-1.575-3.821-3.496-3.821-1.934 0-3.5 1.819-3.5 4.005 0 1.853 1.045 3.371 2.569 3.926.759.276 1.223-.447 1.159-1.026z" fill="#66757f"></path><path d="m25.836 8.731c-.702 0-1.271-.666-1.271-1.489 0-.822.569-1.489 1.271-1.489.701 0 1.271.667 1.271 1.489-.001.822-.57 1.489-1.271 1.489z" fill="#292f33"></path><path d="m26.543 7.083c-.055-.48-.374-.792-.728-1.017-.485-.307-1-1.008-1-1.877 0-1.104.671-2.095 1.5-2.095s1.5.905 1.5 1.905h1.996c-.02-2-1.575-3.821-3.496-3.821-1.934 0-3.5 1.819-3.5 4.005 0 1.853 1.045 3.371 2.569 3.926.759.276 1.223-.447 1.159-1.026z" fill="#66757f"></path></svg><style>@media (prefers-color-scheme: light) { :root { filter: none; } }
@media (prefers-color-scheme: dark) { :root { filter: none; } }
</style></svg>