<?xml version="1.0" standalone="no"?>
<!DOCTYPE svg PUBLIC "-//W3C//DTD SVG 20010904//EN"
 "http://www.w3.org/TR/2001/REC-SVG-20010904/DTD/svg10.dtd">
<svg version="1.0" xmlns="http://www.w3.org/2000/svg"
 width="512.000000pt" height="512.000000pt" viewBox="0 0 512.000000 512.000000"
 preserveAspectRatio="xMidYMid meet">
<metadata>
Created by potrace 1.14, written by Peter Selinger 2001-2017
</metadata>
<g transform="translate(0.000000,512.000000) scale(0.100000,-0.100000)"
fill="#000000" stroke="none">
<path d="M1080 5108 c-74 -19 -158 -67 -217 -125 -118 -115 -170 -234 -178
-406 l-5 -88 -79 -77 c-100 -98 -147 -185 -171 -322 -8 -48 -6 -3615 2 -3640
3 -8 7 -22 10 -30 3 -8 13 -36 23 -63 23 -64 77 -141 140 -202 55 -52 172
-121 215 -127 14 -1 28 -7 32 -13 8 -11 3339 -15 3398 -3 160 31 319 151 393
298 69 137 65 18 63 1995 -1 985 -5 1804 -9 1820 -27 109 -95 225 -178 299
-49 44 -104 80 -112 74 -2 -2 -11 5 -21 14 -15 16 -83 40 -114 41 -13 0 -18
16 -26 87 -17 156 -109 309 -241 400 -25 17 -52 33 -58 34 -7 1 -19 6 -27 11
-8 5 -19 10 -25 11 -5 1 -29 7 -53 12 -44 10 -145 9 -197 -2 -100 -22 -228
-118 -291 -218 -13 -21 -26 -38 -28 -38 -2 0 -15 17 -28 38 -46 69 -126 142
-198 180 -80 43 -218 61 -295 41 -22 -6 -44 -12 -50 -14 -78 -18 -193 -111
-258 -207 -20 -29 -59 -56 -43 -29 4 6 2 11 -4 11 -6 0 -9 4 -6 9 3 5 -27 42
-67 83 -70 72 -160 129 -227 144 -58 12 -149 14 -190 4 -25 -6 -50 -12 -56
-13 -29 -7 -104 -42 -104 -49 0 -4 -5 -8 -11 -8 -17 0 -117 -100 -147 -147
-15 -24 -29 -43 -32 -43 -3 0 -17 19 -32 43 -15 23 -37 52 -50 64 -13 11 -33
32 -45 45 -33 37 -139 90 -207 104 -70 14 -146 15 -196 2z m182 -285 c72 -42
128 -135 128 -213 l0 -35 -210 -1 c-234 -1 -218 -7 -198 74 22 92 104 191 151
183 4 0 7 2 7 7 0 16 88 5 122 -15z m863 -3 c36 -23 75 -65 91 -100 25 -54 36
-90 31 -104 -3 -7 0 -19 6 -25 14 -14 26 -13 -220 -15 l-203 -1 0 32 c0 76 81
197 151 227 39 16 105 10 144 -14z m813 20 c2 -3 18 -7 32 -9 5 0 28 -19 50
-41 49 -48 81 -114 83 -173 l2 -41 -212 -1 -212 0 5 35 c9 55 53 145 89 180
36 35 92 58 133 54 15 -1 28 -3 30 -4z m860 1 c1 -1 5 -1 10 -2 23 -4 102 -71
102 -87 0 -5 6 -15 14 -21 14 -12 37 -82 41 -128 l2 -29 -214 1 -215 0 5 25
c22 112 49 161 117 212 35 27 65 35 110 32 14 -1 26 -2 28 -3z"/>
</g>
</svg>
